<svg width="26" height="26" viewBox="0 0 26 26" fill="none" xmlns="http://www.w3.org/2000/svg">
<path d="M21.8433 8.78074L20.0236 7.20046C18.7125 6.06184 18.1986 5.44933 17.4886 5.66586C16.6032 5.93586 16.8947 7.6395 16.8947 8.21466C15.5182 8.21466 14.0872 8.10879 12.7304 8.32937C8.2515 9.05756 6.85095 12.2442 6.85095 15.6774C8.11863 14.9003 9.38506 14.0338 10.9087 13.6737C12.8105 13.2241 14.9346 13.4386 16.8947 13.4386C16.8947 14.0138 16.6032 15.7174 17.4886 15.9874C18.293 16.2327 18.7125 15.5914 20.0236 14.4528L21.8433 12.8725C22.9595 11.9033 23.5176 11.4186 23.5176 10.8266C23.5176 10.2347 22.9595 9.75007 21.8433 8.78074Z" stroke="black" stroke-width="1.5" stroke-linecap="round" stroke-linejoin="round"/>
<path d="M11.6089 3.53943C7.58782 3.54666 5.48218 3.64518 4.13652 4.98811C2.68433 6.43737 2.68433 8.7699 2.68433 13.4349C2.68433 18.1001 2.68433 20.4326 4.13651 21.8818C5.58871 23.3311 7.92597 23.3311 12.6005 23.3311C17.2751 23.3311 19.6123 23.3311 21.0645 21.8818C22.0756 20.8728 22.3827 19.4356 22.476 17.0811" stroke="black" stroke-width="1.5" stroke-linecap="round" stroke-linejoin="round"/>
</svg>
